<svg width="1000" height="1000" viewBox="0 0 1000 1000" fill="none" xmlns="http://www.w3.org/2000/svg">
<path d="M172 41H817V958H722.321V537.954H721.393C710.928 421.864 613.34 330.889 494.5 330.889C375.66 330.889 278.072 421.864 267.607 537.954H266.679V958H172V41Z" fill="black"/>
<path d="M0 172L38.5441 302.015H71.1575V827.985C54.7828 827.985 41.5087 841.214 41.5087 857.533V892.992H35.5794C19.2046 892.992 5.92922 906.222 5.92922 922.541V958H338V922.541C338 906.222 324.726 892.992 308.351 892.992H302.422V857.533C302.422 841.214 289.147 827.985 272.772 827.985H237.194V172H0Z" fill="black"/>
<path d="M728.035 827.985C711.708 827.985 698.473 841.214 698.473 857.533V892.992H692.561C676.235 892.992 663 906.222 663 922.541V958H994.088V922.541C994.088 906.222 980.852 892.992 964.526 892.992H958.614V857.533C958.614 841.214 945.379 827.985 929.053 827.985V302.015H961.57L1000 172H763.508V827.985H728.035Z" fill="black"/>
</svg>
