<svg width="800" height="800" viewBox="0 0 800 800" fill="none" xmlns="http://www.w3.org/2000/svg">
<g clip-path="url(#clip0_76_2)">
<path fill-rule="evenodd" clip-rule="evenodd" d="M142.444 0H657.556C707.067 0 725.067 5.15585 743.156 14.8453C761.244 24.5347 775.467 38.7577 785.156 56.8476C794.844 74.9375 800 92.894 800 142.452V476.249L604.844 296.105C597.763 289.571 589.348 284.649 580.182 281.679C571.015 278.71 561.313 277.763 551.745 278.903C542.177 280.044 532.97 283.245 524.758 288.287C516.547 293.328 509.525 300.09 504.178 308.106L365.067 516.784L262.711 451.003C249.065 442.235 232.691 438.744 216.656 441.182C200.62 443.62 186.024 451.821 175.6 464.248L0.222227 673.371C0.0762264 668.112 0.00214035 662.852 0 657.592V142.452C0 92.894 5.15556 74.9375 14.8444 56.8476C24.5333 38.7577 38.7555 24.5347 56.8444 14.8453C74.9333 5.15585 92.8889 0 142.444 0ZM563.644 379.132L800 597.233V657.548C800 707.061 794.844 725.062 785.156 743.152C775.683 761.047 761.05 775.681 743.156 785.155C725.067 794.844 707.111 800 657.556 800H142.444C92.8889 800 74.9333 794.844 56.8444 785.155C49.0268 780.996 41.7812 775.842 35.2889 769.82L231.111 536.341L335.378 603.367C350.09 612.82 367.927 616.115 385.044 612.54C402.162 608.964 417.19 598.806 426.889 584.255L563.644 379.132ZM221.689 133.341C172.356 133.341 133.333 170.321 133.333 221.701C133.333 273.126 172.4 311.128 221.689 311.128C272.044 311.128 311.111 273.126 311.111 221.701C311.111 170.321 272.044 133.341 221.689 133.341Z" fill="#000000"/>
</g>
<defs>
<clipPath id="clip0_76_2">
<rect width="800" height="800" fill="white"/>
</clipPath>
</defs>
</svg>
